# xmcd
#
# Track frame offsets: 
#        150
#        10962
#        22737
#        35487
#        48762
#        62337
#        71637
#        83937
#        92862
#        103887
#        114387
#        123612
#        134862
#        149862
#        166737
#        179637
#        190587
#        201387
#        211287
#        221262
#        232212
#        245937
#
# Disc length: 3406 seconds
#
# Revision: 4
# Processed by: cddbd v1.5.2PL0 Copyright (c) Steve Scherf et al.
# Submitted via: ExactAudioCopy v1.5
#
DISCID=510d4c16
DTITLE=Patsy Cline - The Legendary Patsy Cline
DYEAR=1990
DGENRE=Country
TTITLE0=San Antonio Rose
TTITLE1=Sweet Dreams
TTITLE2=I Fall To Pieces
TTITLE3=I Can't Help It (I Am Still In Love With You)
TTITLE4=She's Got You
TTITLE5=Blue Moon Of Kentucky
TTITLE6=Crazy
TTITLE7=Anytime
TTITLE8=Leavin' On Your Mind
TTITLE9=Lovesick Blues
TTITLE10=Walking After Midnight
TTITLE11=Half As Much
TTITLE12=The Wayward Wind
TTITLE13=Faded Love
TTITLE14=Someday (You'll Want Me To Want You)
TTITLE15=Crazy Arms
TTITLE16=Your Cheatin' Heart
TTITLE17=Have You Ever Been Lonely
TTITLE18=I Love You So Much It Hurts
TTITLE19=Love Letters In The Sand
TTITLE20=You Belong To Me
TTITLE21=True Love
EXTD=
EXTT0=
EXTT1=
EXTT2=
EXTT3=
EXTT4=
EXTT5=
EXTT6=
EXTT7=
EXTT8=
EXTT9=
EXTT10=
EXTT11=
EXTT12=
EXTT13=
EXTT14=
EXTT15=
EXTT16=
EXTT17=
EXTT18=
EXTT19=
EXTT20=
EXTT21=
PLAYORDER=
